{"title":"Classic Country &amp; Bluegrass","uid":9145848,"size":1441104004,"categoryP":"video","categoryS":"music_videos","magnet":"?xt=urn:btih:b2472fe4ca30f70dbdc121282fcf57174e35339f&amp;dn=Classic+Country+%26amp%3B+Bluegrass&amp;tr=udp%3A%2F%2Ftracker.openbittorrent.com%3A80&amp;tr=udp%3A%2F%2Fopen.demonii.com%3A1337&amp;tr=udp%3A%2F%2Ftracker.coppersurfer.tk%3A6969&amp;tr=udp%3A%2F%2Fexodus.desync.com%3A6969","seeders":2,"leechers":0,"uploader":"user101966","files":2,"time":1383591647,"description":"Performers &amp; Songs performed in this collection include but not limited to:\n==========================================================================\n\nRoy (Claxton) Acuff\n  - Unknown\n\nHank Snow\n  - Unknown\n\nGeorge (Grandpa) Jones\n   - &quot;Mountain Dew&quot;\n\nThe Carter Family\n   - &quot;Keep On The Sunny Side&quot;\n\nJohnny Cash \n   - &quot;Big River&quot;\n   - &quot;Five Feet High And Rising&quot;\n\nStompin' Tom Conners\n   - Several songs/performaces/venues\n\nBuck Owens\n   - Unknown\n\nLester Flatt &amp; Earl Scruggs\n   - &quot;Instrumental (unknown)&quot;\n\nThe Judds\n   - &quot;Grandpa&quot;\n\nVideo Info:\n\nGeneral\nComplete name                            : Classic Country &amp; Bluegrass Collection.avi\nFormat                                   : AVI\nFormat/Info                              : Audio Video Interleave\nFile size                                : 1.34 GiB\nDuration                                 : 48mn 32s\nOverall bit rate                         : 3 959 Kbps\nWriting application                      : VirtualDubMod 1.5.4.1 (build 2178/release)\nWriting library                          : VirtualDub build 32842/release\n\nVideo\nID                                       : 0\nFormat                                   : MPEG-4 Visual\nFormat profile                           : Advanced Simple@L5\nFormat settings, BVOP                    : 1\nFormat settings, QPel                    : No\nFormat settings, GMC                     : No warppoints\nFormat settings, Matrix                  : Custom\nCodec ID                                 : XVID\nCodec ID/Hint                            : XviD\nDuration                                 : 48mn 32s\nBit rate                                 : 3 691 Kbps\nWidth                                    : 720 pixels\nHeight                                   : 544 pixels\nDisplay aspect ratio                     : 4:3\nFrame rate                               : 29.970 fps\nColor space                              : YUV\nChroma subsampling                       : 4:2:0\nBit depth                                : 8 bits\nScan type                                : Progressive\nCompression mode                         : Lossy\nBits/(Pixel*Frame)                       : 0.314\nStream size                              : 1.25 GiB (93%)\nWriting library                          : XviD 64\n\nAudio\nID                                       : 1\nFormat                                   : MPEG Audio\nFormat version                           : Version 1\nFormat profile                           : Layer 3\nMode                                     : Joint stereo\nCodec ID                                 : 55\nCodec ID/Hint                            : MP3\nDuration                                 : 48mn 31s\nBit rate mode                            : Constant\nBit rate                                 : 256 Kbps\nChannel(s)                               : 2 channels\nSampling rate                            : 48.0 KHz\nCompression mode                         : Lossy\nStream size                              : 88.9 MiB (6%)\nAlignment                                : Split accross interleaves\nInterleave, duration                     : 33 ms (1.00 video frame)\nInterleave, preload duration             : 500 ms\n\n","torrent":{"xt":"urn:btih:b2472fe4ca30f70dbdc121282fcf57174e35339f","amp;dn":"Classic+Country+%26amp%3B+Bluegrass","amp;tr":["udp%3A%2F%2Ftracker.openbittorrent.com%3A80","udp%3A%2F%2Fopen.demonii.com%3A1337","udp%3A%2F%2Ftracker.coppersurfer.tk%3A6969","udp%3A%2F%2Fexodus.desync.com%3A6969"],"infoHash":"b2472fe4ca30f70dbdc121282fcf57174e35339f","infoHashBuffer":{"type":"Buffer","data":[178,71,47,228,202,48,247,13,189,193,33,40,47,207,87,23,78,53,51,159]},"announce":[],"urlList":[]}}